<svg width="52.052" height="69.239" viewBox="0 0 52.052 69.239" xmlns="http://www.w3.org/2000/svg"><g id="svgGroup" stroke-linecap="round" fill-rule="evenodd" font-size="9pt" stroke="#000" stroke-width="0.1mm" fill="none" style="stroke:#000;stroke-width:0.1mm;fill:none"><path d="M 52.052 35.254 L 52.052 67.774 Q 48.279 68.758 42.886 69.081 A 94.88 94.88 0 0 1 37.232 69.238 A 61.94 61.94 0 0 1 30.189 68.86 Q 26.577 68.446 23.485 67.579 A 33.751 33.751 0 0 1 21.461 66.943 A 31.737 31.737 0 0 1 12.317 62.017 A 29.703 29.703 0 0 1 10.157 60.156 A 31.012 31.012 0 0 1 0.993 43.623 A 46.19 46.19 0 0 1 0.001 33.789 A 38.778 38.778 0 0 1 1.16 24.109 A 30.86 30.86 0 0 1 5.274 14.746 A 30.569 30.569 0 0 1 20.684 2.71 A 43.057 43.057 0 0 1 27.198 0.879 A 42.525 42.525 0 0 1 30.892 0.343 Q 32.941 0.131 35.294 0.05 A 88.253 88.253 0 0 1 38.331 0 Q 43.378 0 47.366 0.372 A 60.746 60.746 0 0 1 49.708 0.635 L 49.708 10.01 Q 45.509 8.936 37.721 8.936 A 57.077 57.077 0 0 0 32.698 9.143 Q 30.18 9.366 28.044 9.829 A 25.524 25.524 0 0 0 24.952 10.693 A 23.994 23.994 0 0 0 20.143 12.988 A 19.623 19.623 0 0 0 16.7 15.723 A 20.855 20.855 0 0 0 11.116 25.627 Q 10.277 28.86 10.172 32.684 A 40.304 40.304 0 0 0 10.157 33.789 A 35.451 35.451 0 0 0 11.026 41.864 A 24.161 24.161 0 0 0 16.603 52.783 Q 23.634 60.547 36.671 60.547 A 66.289 66.289 0 0 0 39.938 60.47 A 52.71 52.71 0 0 0 42.286 60.303 L 42.286 35.254 L 52.052 35.254 Z" id="0" vector-effect="non-scaling-stroke"/></g></svg>