<svg width="35.988" height="68.457" viewBox="0 0 35.988 68.457" xmlns="http://www.w3.org/2000/svg"><g id="svgGroup" stroke-linecap="round" fill-rule="evenodd" font-size="9pt" stroke="#000" stroke-width="0.1mm" fill="none" style="stroke:#000;stroke-width:0.1mm;fill:none"><path d="M 0 68.213 L 0 58.789 A 9.228 9.228 0 0 0 1.173 59.045 Q 3.135 59.36 6.71 59.374 A 86.101 86.101 0 0 0 7.056 59.375 A 30.532 30.532 0 0 0 10.796 59.159 Q 12.67 58.927 14.261 58.447 A 15.966 15.966 0 0 0 15.649 57.959 A 13.704 13.704 0 0 0 21.484 53.467 A 18.832 18.832 0 0 0 24.229 48.183 Q 26.221 42.459 26.221 33.594 L 26.221 8.643 L 1.172 8.643 L 1.172 0 L 35.986 0 L 35.986 33.594 A 64.117 64.117 0 0 1 35.072 44.889 Q 34.01 50.802 31.714 55.218 A 22.471 22.471 0 0 1 19.336 66.309 A 31.5 31.5 0 0 1 13.497 67.851 Q 9.915 68.457 5.713 68.457 A 45.557 45.557 0 0 1 4.587 68.442 Q 3.322 68.41 1.628 68.314 A 168.223 168.223 0 0 1 0 68.213 Z" id="0" vector-effect="non-scaling-stroke"/></g></svg>