<svg width="49.22" height="68.946" viewBox="0 0 49.22 68.946" xmlns="http://www.w3.org/2000/svg"><g id="svgGroup" stroke-linecap="round" fill-rule="evenodd" font-size="9pt" stroke="#000" stroke-width="0.1mm" fill="none" style="stroke:#000;stroke-width:0.1mm;fill:none"><path d="M 49.22 58.691 L 49.22 68.066 Q 44.606 68.905 36.947 68.944 A 147.983 147.983 0 0 1 36.207 68.945 Q 28.028 68.945 21.461 66.699 A 32.168 32.168 0 0 1 12.803 62.242 A 29.56 29.56 0 0 1 10.157 60.059 A 30.874 30.874 0 0 1 0.944 43.365 A 46.112 46.112 0 0 1 0.001 33.789 A 38.817 38.817 0 0 1 1.227 23.833 A 31.288 31.288 0 0 1 5.226 14.746 A 30.492 30.492 0 0 1 20.908 2.561 A 42.696 42.696 0 0 1 26.954 0.879 A 43.164 43.164 0 0 1 31.053 0.294 Q 33.129 0.092 35.479 0.029 A 81.719 81.719 0 0 1 37.672 0 A 93.573 93.573 0 0 1 41.322 0.067 Q 45.072 0.214 47.657 0.684 L 47.657 10.01 A 17.247 17.247 0 0 0 45.439 9.491 Q 42.996 9.068 39.436 8.967 A 82.986 82.986 0 0 0 37.086 8.936 A 48.641 48.641 0 0 0 31.829 9.204 Q 27.987 9.622 24.952 10.693 A 23.994 23.994 0 0 0 20.143 12.988 A 19.623 19.623 0 0 0 16.7 15.723 A 20.855 20.855 0 0 0 11.116 25.627 Q 10.277 28.86 10.172 32.684 A 40.304 40.304 0 0 0 10.157 33.789 Q 10.157 45.027 16.035 51.811 A 22 22 0 0 0 16.603 52.441 A 22.527 22.527 0 0 0 27.379 58.731 Q 31.037 59.722 35.408 59.846 A 44.6 44.6 0 0 0 36.671 59.863 A 82.695 82.695 0 0 0 41.612 59.725 Q 46.015 59.461 49.22 58.691 Z" id="0" vector-effect="non-scaling-stroke"/></g></svg>