<svg width="45.852" height="68.946" viewBox="0 0 45.852 68.946" xmlns="http://www.w3.org/2000/svg"><g id="svgGroup" stroke-linecap="round" fill-rule="evenodd" font-size="9pt" stroke="#000" stroke-width="0.1mm" fill="none" style="stroke:#000;stroke-width:0.1mm;fill:none"><path d="M 1.077 68.018 L 1.077 58.545 A 64.92 64.92 0 0 0 15.432 60.157 A 104.077 104.077 0 0 0 19.211 60.093 Q 23.675 59.93 26.272 59.351 A 28.065 28.065 0 0 0 28.686 58.706 Q 30.675 58.071 32.082 57.227 Q 36.135 54.785 36.135 50.879 A 9.44 9.44 0 0 0 35.967 49.04 Q 35.749 47.943 35.249 47.094 A 5.059 5.059 0 0 0 34.573 46.192 Q 32.637 44.18 29.373 42.434 A 35.912 35.912 0 0 0 27.395 41.455 L 14.895 35.742 A 67.727 67.727 0 0 1 11.567 34.074 Q 7.694 31.987 5.764 30.127 A 19.866 19.866 0 0 1 1.876 25.019 A 16.625 16.625 0 0 1 0.002 17.237 A 13.904 13.904 0 0 1 4.791 6.479 A 19.065 19.065 0 0 1 6.545 5.078 A 24.401 24.401 0 0 1 13.527 1.744 Q 16.808 0.736 20.784 0.311 A 58.124 58.124 0 0 1 26.955 0 A 187.371 187.371 0 0 1 35.134 0.171 A 142.317 142.317 0 0 1 42.58 0.684 L 42.58 10.01 A 53.529 53.529 0 0 0 35.49 8.914 A 70.607 70.607 0 0 0 29.177 8.643 Q 21.78 8.643 18.435 9.4 A 27.078 27.078 0 0 0 16.485 9.913 Q 14.495 10.523 13.186 11.328 A 8.748 8.748 0 0 0 11.358 12.805 A 5.961 5.961 0 0 0 9.719 16.992 A 8.716 8.716 0 0 0 10.166 19.838 A 7.445 7.445 0 0 0 11.916 22.657 A 12.106 12.106 0 0 0 13.259 23.766 Q 14.793 24.878 17.259 26.159 A 64.998 64.998 0 0 0 19.045 27.051 L 31.887 33.155 A 60.197 60.197 0 0 1 35.182 34.83 Q 39.005 36.937 40.847 38.867 A 23.659 23.659 0 0 1 42.895 41.306 Q 43.897 42.689 44.546 44.078 A 14.446 14.446 0 0 1 44.631 44.263 A 13.137 13.137 0 0 1 45.547 47.241 Q 45.852 48.865 45.852 50.757 Q 45.852 54.541 44.192 57.886 A 14.736 14.736 0 0 1 40.906 62.198 A 18.719 18.719 0 0 1 39.04 63.697 A 21.778 21.778 0 0 1 35.344 65.772 Q 33.009 66.815 30.129 67.554 Q 25.916 68.636 20.243 68.877 A 79.519 79.519 0 0 1 16.872 68.946 Q 9.036 68.946 1.077 68.018 Z" id="0" vector-effect="non-scaling-stroke"/></g></svg>