<svg width="51.612" height="68.752" viewBox="0 0 51.612 68.752" xmlns="http://www.w3.org/2000/svg"><g id="svgGroup" stroke-linecap="round" fill-rule="evenodd" font-size="9pt" stroke="#000" stroke-width="0.1mm" fill="none" style="stroke:#000;stroke-width:0.1mm;fill:none"><path d="M 41.846 40.674 L 41.846 0 L 51.611 0 L 51.611 40.674 Q 51.611 50.344 48.332 56.758 A 21.239 21.239 0 0 1 44.336 62.256 A 21.557 21.557 0 0 1 34.632 67.678 Q 30.67 68.75 25.83 68.75 Q 7.422 68.75 1.953 53.564 A 29.605 29.605 0 0 1 0.584 48.28 Q 0 44.813 0 40.674 L 0 0 L 9.766 0 L 9.766 40.674 Q 9.766 58.337 22.708 60.145 A 22.564 22.564 0 0 0 25.83 60.352 Q 40.464 60.352 41.726 43.923 A 42.443 42.443 0 0 0 41.846 40.674 Z" id="0" vector-effect="non-scaling-stroke"/></g></svg>