<svg width="43.301" height="70.001" viewBox="0 0 43.301 70.001" xmlns="http://www.w3.org/2000/svg"><g id="svgGroup" stroke-linecap="round" fill-rule="nonzero" font-size="9pt" stroke="#000" stroke-width="0.1mm" fill="#000" style="stroke:#000;stroke-width:0.1mm;fill:#000"><path d="M 0 70.001 L 0 0.001 L 22.1 0.001 A 25.675 25.675 0 0 1 27.437 0.524 Q 30.865 1.252 33.492 2.995 A 15.295 15.295 0 0 1 34.9 4.051 A 12.944 12.944 0 0 1 39.08 10.861 Q 39.642 13.004 39.695 15.566 A 26.012 26.012 0 0 1 39.7 16.101 A 14.715 14.715 0 0 1 38.731 21.262 A 19.398 19.398 0 0 1 37.45 24.001 Q 35.2 28.001 31 29.601 L 30.9 29.801 L 30.9 29.901 Q 36.3 32.001 39.8 36.651 A 16.324 16.324 0 0 1 42.466 42.234 Q 43.091 44.528 43.248 47.243 A 32.298 32.298 0 0 1 43.3 49.101 Q 43.3 57.701 38.65 63.851 A 14.227 14.227 0 0 1 31.917 68.649 Q 29.449 69.536 26.38 69.841 A 34.227 34.227 0 0 1 23 70.001 L 0 70.001 Z M 23.1 30.601 L 1.9 30.601 L 1.9 68.101 L 22.8 68.101 A 25.926 25.926 0 0 0 28.254 67.562 Q 31.695 66.822 34.279 65.062 A 14.585 14.585 0 0 0 36.6 63.101 A 16.11 16.11 0 0 0 40.345 56.546 Q 41.4 53.107 41.4 48.701 A 20.175 20.175 0 0 0 40.289 41.952 A 18.755 18.755 0 0 0 39.25 39.551 Q 37.1 35.401 33 33.001 A 17.063 17.063 0 0 0 27.532 30.997 A 23.633 23.633 0 0 0 23.1 30.601 Z M 21.3 1.901 L 1.9 1.901 L 1.9 28.701 L 25.7 28.701 A 11.646 11.646 0 0 0 31.131 27.34 A 13.586 13.586 0 0 0 31.3 27.251 Q 34 25.801 35.8 23.151 A 11.644 11.644 0 0 0 37.698 18.074 A 14.225 14.225 0 0 0 37.8 17.001 Q 38.2 9.801 34 5.851 Q 29.8 1.901 21.3 1.901 Z" id="0" vector-effect="non-scaling-stroke"/></g></svg>